<mxfile host="65bd71144e" modified="2021-02-13T21:19:18.900Z" agent="5.0 (X11; Linux x86_64) AppleWebKit/537.36 (KHTML, like Gecko) Code/1.53.2 Chrome/87.0.4280.141 Electron/11.2.1 Safari/537.36" etag="NgA2Qfdi7TrMn4uWNcUx" version="14.2.4" type="embed">
    <diagram id="kj58pbTsnW9bfMCIkfse" name="Page-1">
        <mxGraphModel dx="438" dy="455" grid="1" gridSize="10" guides="1" tooltips="1" connect="1" arrows="1" fold="1" page="1" pageScale="1" pageWidth="850" pageHeight="1100" background="#FFFFFF" math="0" shadow="0">
            <root>
                <mxCell id="0"/>
                <mxCell id="1" parent="0"/>
                <mxCell id="4" style="edgeStyle=orthogonalEdgeStyle;rounded=0;orthogonalLoop=1;jettySize=auto;html=1;" parent="1" source="2" target="3" edge="1">
                    <mxGeometry relative="1" as="geometry"/>
                </mxCell>
                <mxCell id="2" value="" style="shape=image;verticalLabelPosition=bottom;labelBackgroundColor=#ffffff;verticalAlign=top;aspect=fixed;imageAspect=0;image=data:image/svg+xml,PHN2ZyB4bWxuczpkYz0iaHR0cDovL3B1cmwub3JnL2RjL2VsZW1lbnRzLzEuMS8iIHhtbG5zOmNjPSJodHRwOi8vY3JlYXRpdmVjb21tb25zLm9yZy9ucyMiIHhtbG5zOnJkZj0iaHR0cDovL3d3dy53My5vcmcvMTk5OS8wMi8yMi1yZGYtc3ludGF4LW5zIyIgeG1sbnM6c3ZnPSJodHRwOi8vd3d3LnczLm9yZy8yMDAwL3N2ZyIgeG1sbnM9Imh0dHA6Ly93d3cudzMub3JnLzIwMDAvc3ZnIiB4bWxuczp4bGluaz0iaHR0cDovL3d3dy53My5vcmcvMTk5OS94bGluayIgeG1sbnM6c29kaXBvZGk9Imh0dHA6Ly9zb2RpcG9kaS5zb3VyY2Vmb3JnZS5uZXQvRFREL3NvZGlwb2RpLTAuZHRkIiB4bWxuczppbmtzY2FwZT0iaHR0cDovL3d3dy5pbmtzY2FwZS5vcmcvbmFtZXNwYWNlcy9pbmtzY2FwZSIgd2lkdGg9IjY0cHgiIGhlaWdodD0iNjRweCIgaWQ9InN2ZzMxNDAiIHNvZGlwb2RpOnZlcnNpb249IjAuMzIiIGlua3NjYXBlOnZlcnNpb249IjAuNDYiIHNvZGlwb2RpOmRvY25hbWU9IkZyZWVDQUQwNS5zdmciIGlua3NjYXBlOm91dHB1dF9leHRlbnNpb249Im9yZy5pbmtzY2FwZS5vdXRwdXQuc3ZnLmlua3NjYXBlIiB2aWV3Qm94PSIwIDAgNjQgNjQiPiYjeGE7ICA8ZGVmcyBpZD0iZGVmczMxNDIiPiYjeGE7ICAgIDxsaW5lYXJHcmFkaWVudCBpZD0ibGluZWFyR3JhZGllbnQzODY0Ij4mI3hhOyAgICAgIDxzdG9wIGlkPSJzdG9wMzg2NiIgb2Zmc2V0PSIwIiBzdHlsZT0ic3RvcC1jb2xvcjojNzFiMmY4O3N0b3Atb3BhY2l0eToxOyIvPiYjeGE7ICAgICAgPHN0b3AgaWQ9InN0b3AzODY4IiBvZmZzZXQ9IjEiIHN0eWxlPSJzdG9wLWNvbG9yOiMwMDI3OTU7c3RvcC1vcGFjaXR5OjE7Ii8+JiN4YTsgICAgPC9saW5lYXJHcmFkaWVudD4mI3hhOyAgICA8cmFkaWFsR3JhZGllbnQgaW5rc2NhcGU6Y29sbGVjdD0iYWx3YXlzIiB4bGluazpocmVmPSIjbGluZWFyR3JhZGllbnQzODY0IiBpZD0icmFkaWFsR3JhZGllbnQzNjYxIiBncmFkaWVudFVuaXRzPSJ1c2VyU3BhY2VPblVzZSIgZ3JhZGllbnRUcmFuc2Zvcm09Im1hdHJpeCgwLjYxODY2LCAwLjk2NjY1NCwgLTEuMDMzMjUsIDAuNjYxMjc5LCAtMzI3LjI3NiwgLTI1NS44NDEpIiBjeD0iMjgyLjY0NTg0IiBjeT0iMjkuMTQ5MDQ2IiBmeD0iMjgyLjY0NTg0IiBmeT0iMjkuMTQ5MDQ2IiByPSIxOS41NzE0MjgiLz4mI3hhOyAgICA8bGluZWFyR3JhZGllbnQgaWQ9ImxpbmVhckdyYWRpZW50MzY4MiI+JiN4YTsgICAgICA8c3RvcCBzdHlsZT0ic3RvcC1jb2xvcjojZmY2ZDBmO3N0b3Atb3BhY2l0eToxOyIgb2Zmc2V0PSIwIiBpZD0ic3RvcDM2ODQiLz4mI3hhOyAgICAgIDxzdG9wIHN0eWxlPSJzdG9wLWNvbG9yOiNmZjEwMDA7c3RvcC1vcGFjaXR5OjE7IiBvZmZzZXQ9IjEiIGlkPSJzdG9wMzY4NiIvPiYjeGE7ICAgIDwvbGluZWFyR3JhZGllbnQ+JiN4YTsgICAgPHJhZGlhbEdyYWRpZW50IGlua3NjYXBlOmNvbGxlY3Q9ImFsd2F5cyIgeGxpbms6aHJlZj0iI2xpbmVhckdyYWRpZW50MzY4MiIgaWQ9InJhZGlhbEdyYWRpZW50MzgxNyIgZ3JhZGllbnRVbml0cz0idXNlclNwYWNlT25Vc2UiIGdyYWRpZW50VHJhbnNmb3JtPSJtYXRyaXgoMS4xMTQ5MiwgMC4yNzIyMzEsIC0wLjc1MDcxNywgMy4wNzQ1NiwgLTQ3MS4wODYsIC0xNDguMzI5KSIgY3g9IjI3MC41ODMxNiIgY3k9IjMzLjg5OTk4NiIgZng9IjI3MC41ODMxNiIgZnk9IjMzLjg5OTk4NiIgcj0iMTkuNTcxNDI4Ii8+JiN4YTsgICAgPGlua3NjYXBlOnBlcnNwZWN0aXZlIHNvZGlwb2RpOnR5cGU9Imlua3NjYXBlOnBlcnNwM2QiIGlua3NjYXBlOnZwX3g9IjAgOiAzMiA6IDEiIGlua3NjYXBlOnZwX3k9IjAgOiAxMDAwIDogMCIgaW5rc2NhcGU6dnBfej0iNjQgOiAzMiA6IDEiIGlua3NjYXBlOnBlcnNwM2Qtb3JpZ2luPSIzMiA6IDIxLjMzMzMzMyA6IDEiIGlkPSJwZXJzcGVjdGl2ZTMxNDgiLz4mI3hhOyAgPC9kZWZzPiYjeGE7ICA8c29kaXBvZGk6bmFtZWR2aWV3IGlkPSJiYXNlIiBwYWdlY29sb3I9IiNmZmZmZmYiIGJvcmRlcmNvbG9yPSIjNjY2NjY2IiBib3JkZXJvcGFjaXR5PSIxLjAiIGlua3NjYXBlOnBhZ2VvcGFjaXR5PSIwLjAiIGlua3NjYXBlOnBhZ2VzaGFkb3c9IjIiIGlua3NjYXBlOnpvb209IjUuNSIgaW5rc2NhcGU6Y3g9IjMyIiBpbmtzY2FwZTpjeT0iMzIiIGlua3NjYXBlOmN1cnJlbnQtbGF5ZXI9ImxheWVyMSIgc2hvd2dyaWQ9InRydWUiIGlua3NjYXBlOmRvY3VtZW50LXVuaXRzPSJweCIgaW5rc2NhcGU6Z3JpZC1iYm94PSJ0cnVlIiBpbmtzY2FwZTp3aW5kb3ctd2lkdGg9IjY0MCIgaW5rc2NhcGU6d2luZG93LWhlaWdodD0iNjg0IiBpbmtzY2FwZTp3aW5kb3cteD0iMCIgaW5rc2NhcGU6d2luZG93LXk9IjkzIi8+JiN4YTsgIDxtZXRhZGF0YSBpZD0ibWV0YWRhdGEzMTQ1Ij4mI3hhOyAgICA8cmRmOlJERj4mI3hhOyAgICAgIDxjYzpXb3JrIHJkZjphYm91dD0iIj4mI3hhOyAgICAgICAgPGRjOmZvcm1hdD5pbWFnZS9zdmcreG1sPC9kYzpmb3JtYXQ+JiN4YTsgICAgICAgIDxkYzp0eXBlIHJkZjpyZXNvdXJjZT0iaHR0cDovL3B1cmwub3JnL2RjL2RjbWl0eXBlL1N0aWxsSW1hZ2UiLz4mI3hhOyAgICAgIDwvY2M6V29yaz4mI3hhOyAgICA8L3JkZjpSREY+JiN4YTsgIDwvbWV0YWRhdGE+JiN4YTsgIDxnIGlkPSJsYXllcjEiIGlua3NjYXBlOmxhYmVsPSJMYXllciAxIiBpbmtzY2FwZTpncm91cG1vZGU9ImxheWVyIj4mI3hhOyAgICA8ZyBpZD0iZzM4MTMiIHRyYW5zZm9ybT0ibWF0cml4KDAuODUwNjQxLCAwLCAwLCAwLjg1MDY0MSwgMTg3LjgyNywgLTAuMTk2MDAxKSI+JiN4YTsgICAgICA8cGF0aCBzb2RpcG9kaTpub2RldHlwZXM9ImNjY2NjY2NjY2NjIiBpZD0icmVjdDM2NjMiIGQ9Ik0gLTIxNi4xMzY1OSw3LjI3MDc2MyBMIC0yMTYuMTM2NTksNjIuNzcwNzYzIEwgLTIwMy43NjE1OSw2Mi43NzA3NjMgTCAtMjAzLjc2MTU5LDQxLjA1MjAxMyBMIC0xOTUuMDExNTksNDEuMDUyMDEzIEwgLTE5NS4wMTE1OSwzMi40ODk1MTMgTCAtMjAzLjc2MTU5LDMyLjQ4OTUxMyBMIC0yMDMuNzYxNTksMjMuMjQ3NjM0IEwgLTE4Mi4yMDY0NSwyMy4yNDc2MzQgTCAtMTgyLjIwNjQ1LDcuMzAyMDEzIEwgLTIxNi4xMzY1OSw3LjI3MDc2MyB6IiBzdHlsZT0ib3BhY2l0eToxO2ZpbGw6dXJsKCNyYWRpYWxHcmFkaWVudDM4MTcpO2ZpbGwtb3BhY2l0eToxO2ZpbGwtcnVsZTpldmVub2RkO3N0cm9rZTojMzcwNzAwO3N0cm9rZS13aWR0aDoxLjkxMDAwMTUyO3N0cm9rZS1saW5lY2FwOmJ1dHQ7c3Ryb2tlLWxpbmVqb2luOm1pdGVyO21hcmtlcjpub25lO21hcmtlci1zdGFydDpub25lO21hcmtlci1taWQ6bm9uZTttYXJrZXItZW5kOm5vbmU7c3Ryb2tlLW1pdGVybGltaXQ6NDtzdHJva2UtZGFzaGFycmF5Om5vbmU7c3Ryb2tlLWRhc2hvZmZzZXQ6MDtzdHJva2Utb3BhY2l0eToxO3Zpc2liaWxpdHk6dmlzaWJsZTtkaXNwbGF5OmlubGluZTtvdmVyZmxvdzp2aXNpYmxlO2VuYWJsZS1iYWNrZ3JvdW5kOmFjY3VtdWxhdGUiLz4mI3hhOyAgICAgIDxwYXRoIGlkPSJwYXRoMzY1OSIgZD0iTSAtMTYxLjA1MDg4LDIzLjgxMTU2MiBMIC0xNjguMjQ5MTQsMjcuOTQxNDUxIEwgLTE3MS40Mjc4MywyNi44MzgzNTkgTCAtMTc0LjQ2MDU3LDE5LjA4NzYzNiBMIC0xNzkuMjMxMjMsMTkuMzM4MzM1IEwgLTE4MS40MDcyNSwyNy4zNTMwNjggTCAtMTg0LjQ1MjcyLDI4LjgxMTQ3OCBMIC0xOTIuMDQ4NjMsMjUuNDg4NjYzIEwgLTE5NS4yNTY5NCwyOS4wNTM4NSBMIC0xOTEuMTI3MDQsMzYuMjUyMTA3IEwgLTE5Mi4yNTU2MiwzOS40MjE0ODMgTCAtMjAwLjAwNjM1LDQyLjQ1NDIyNCBMIC0xOTkuNzMwMTcsNDcuMjM0MTg2IEwgLTE5MS43MTU0Myw0OS40MTAyMDcgTCAtMTkwLjI1NzAyLDUyLjQ1NTY2OCBMIC0xOTMuNjA1MzEsNjAuMDQyMjgzIEwgLTE5MC4wNDAxMyw2My4yNTA1ODkgTCAtMTgyLjg0MTg4LDU5LjEyMDY5OCBMIC0xNzkuNjQ3MDEsNjAuMjU4NTgxIEwgLTE3Ni42Mzk3NSw2OCBMIC0xNzEuODM0MzEsNjcuNzMzMTE3IEwgLTE2OS42ODM3Nyw1OS43MDkwODMgTCAtMTY2LjYzODMsNTguMjUwNjcxIEwgLTE1OS4wMjYyMiw2MS42MDgyNzggTCAtMTU1LjgxNzkxLDU4LjA0MzA5MSBMIC0xNTkuOTQ3OCw1MC44NDQ4MzUgTCAtMTU4LjgzNTQxLDQ3LjY0MDY2NyBMIC0xNTEuMDkzOTksNDQuNjMzNDA3IEwgLTE1MS4zMzUzNywzOS44MzcyNyBMIC0xNTkuMzU5NDEsMzcuNjg2NzM0IEwgLTE2MC44MTc4MywzNC42NDEyNzMgTCAtMTU3LjQ4NTcxLDI3LjAxOTg2NyBMIC0xNjEuMDUwODgsMjMuODExNTYyIHogTSAtMTcxLjgzMTY4LDM1LjYxNTgyMSBMIC0xNzAuMzU0MDMsMzYuNDczMTc4IEwgLTE2OS4wNzM4MSwzNy42MzM5MTMgTCAtMTY4LjA0ODg3LDM5LjAxOTEzNiBMIC0xNjcuMzExNTgsNDAuNTU5MjYzIEwgLTE2Ni44NzgwOSw0Mi4yMTk1MDUgTCAtMTY2LjgwNjI3LDQzLjkyMDk2OCBMIC0xNjcuMDUyMDIsNDUuNjIxOTg5IEwgLTE2Ny42MTI4Niw0Ny4yMzY4MTkgTCAtMTY4LjUwNTAxLDQ4LjczMDY1MyBMIC0xNjkuNjMwOTUsNDkuOTk0NjkgTCAtMTcxLjAxNjE4LDUxLjAxOTYyMyBMIC0xNzIuNTU2MzEsNTEuNzU2OTE0IEwgLTE3NC4yMTY1NCw1Mi4xOTAzOTcgTCAtMTc1LjkyNzMxLDUyLjI4NzcwNSBMIC0xNzcuNjI4MzQsNTIuMDQxOTcyIEwgLTE3OS4yNDMxNiw1MS40ODExMiBMIC0xODAuNzM2OTksNTAuNTg4OTcxIEwgLTE4MS45OTE3NCw0OS40Mzc1NCBMIC0xODMuMDI1OTYsNDguMDc3ODA1IEwgLTE4My43NjMyNyw0Ni41Mzc2NzkgTCAtMTg0LjE4NzQ0LDQ0Ljg1MTk1MiBMIC0xODQuMjg0NzUsNDMuMTQxMTgzIEwgLTE4NC4wMzkwMiw0MS40NDAxNTggTCAtMTgzLjQ3ODE2LDM5LjgyNTMzMiBMIC0xODIuNTk1MzIsMzguMzU2OTgxIEwgLTE4MS40NjAwNiwzNy4wNjc0NjEgTCAtMTgwLjA3NDg0LDM2LjA0MjUyNyBMIC0xNzguNTM0NzIsMzUuMzA1MjMzIEwgLTE3Ni44NDksMzQuODgxMDU5IEwgLTE3NS4xNDc1MywzNC44MDkyMzYgTCAtMTczLjQ0NjUxLDM1LjA1NDk2NyBMIC0xNzEuODMxNjgsMzUuNjE1ODIxIHoiIHN0eWxlPSJvcGFjaXR5OjE7ZmlsbDp1cmwoI3JhZGlhbEdyYWRpZW50MzY2MSk7ZmlsbC1vcGFjaXR5OjE7ZmlsbC1ydWxlOmV2ZW5vZGQ7c3Ryb2tlOiMwMDAxMzc7c3Ryb2tlLXdpZHRoOjEuOTEwMDAxNTI7c3Ryb2tlLWxpbmVjYXA6YnV0dDtzdHJva2UtbGluZWpvaW46bWl0ZXI7bWFya2VyOm5vbmU7bWFya2VyLXN0YXJ0Om5vbmU7bWFya2VyLW1pZDpub25lO21hcmtlci1lbmQ6bm9uZTtzdHJva2UtbWl0ZXJsaW1pdDo0O3N0cm9rZS1kYXNoYXJyYXk6bm9uZTtzdHJva2UtZGFzaG9mZnNldDowO3N0cm9rZS1vcGFjaXR5OjE7dmlzaWJpbGl0eTp2aXNpYmxlO2Rpc3BsYXk6aW5saW5lO292ZXJmbG93OnZpc2libGU7ZW5hYmxlLWJhY2tncm91bmQ6YWNjdW11bGF0ZSIvPiYjeGE7ICAgIDwvZz4mI3hhOyAgPC9nPiYjeGE7PC9zdmc+;" parent="1" vertex="1">
                    <mxGeometry x="10" y="210" width="64" height="64" as="geometry"/>
                </mxCell>
                <mxCell id="8" style="edgeStyle=orthogonalEdgeStyle;rounded=0;orthogonalLoop=1;jettySize=auto;html=1;" parent="1" source="3" target="7" edge="1">
                    <mxGeometry relative="1" as="geometry"/>
                </mxCell>
                <mxCell id="3" value="Wavefront .obj file" style="rounded=0;whiteSpace=wrap;html=1;" parent="1" vertex="1">
                    <mxGeometry x="130" y="212" width="120" height="60" as="geometry"/>
                </mxCell>
                <mxCell id="7" value="Three.js&lt;br&gt;" style="rounded=0;whiteSpace=wrap;html=1;align=center;" parent="1" vertex="1">
                    <mxGeometry x="310" y="212" width="120" height="60" as="geometry"/>
                </mxCell>
                <mxCell id="6" value="" style="shape=image;verticalLabelPosition=bottom;labelBackgroundColor=#ffffff;verticalAlign=top;aspect=fixed;imageAspect=0;image=data:image/png,iVBORw0KGgoAAAANSUhEUgAAAfQAAAH0CAYAAADL1t+KAAAACXBIWXMAABYlAAAWJQFJUiTwAABjp0lEQVR4Xu3dCfwVY//4f9laJSKEFqS0KaGUaCGllKVuFCHuiChSlkIposieteSWpYRCKluJCoWSUDcpXyGyJJLS8Xu/7/98/I+Pc801M2dmzpzzeX0ej/txPx5mu67nTPM+17yvZZtt+EMAAQQQQAABBBBAAAEEEEAAAQQQQAABBBBAAAEEEEAAAQQQQAABBBBAAAEEEEAAAQQQQAABBBBAAAEEEEAAAQQQQAABBBBAAAEEEEAAAQQQQAABBBBAAAEEEEAAAQQQQAABBBBAAAEEEEAAAQQQQAABBBBAAAEEEEAAAQQQQAABBBBAAAEEEEAAAQQQQAABBBBAAAEEEEAAAQQQQAABBBBAAAEEEEAAAQQQQAABBBBAAAEEEEAAAQQQQAABBBBAAAEEEEAAAQQQQAABBBBAAAEEEEAAAQQQQAABBBBAAAEEEEAAAQQQQAABBBBAAAEEEEAAAQQQQAABBBBAAAEEEEAAAQQQQAABBBBAAAEEEEAAAQQQQAABBBBAAAEEEEAAAQQQQAABBBBAAAEEEEAAAQQQQAABBBBAAAEEEEAAAQQQQAABBBBAAAEEEEAAAQQQQAABBBBAAAEEEEAAAQQQQAABBBBAAAEEEEAAAQQQQAABBBBAAAEEEEAAAQQQQAABBBBAAAEEEEAAAQQQQAABBBBAAAEEEEAAAQQQQAABBBBAAAEEEEAAAQQQQAABBBBAAAEEEEAAAQQQQAABBBBAAAEEEEAAAQQQQAABBBBAAAEEEEAAAQQQQAABBBBAAAEEEEAAAQQQQAABBBBAAAEEEEAAAQQQQAABBBBAAAEEEEAAAQQQQAABBBBAAAEEEEAAAQQQQAABBBBAAAEEEEAAAQQQQAABBBBAAAEEEEAAAQQQQAABBBBAAAEEEEAAAQQQQAABBBBAAAEEEEAAAQQQQAABBBBAAAEEEEAAAQQQQAABBBBAAAEEEEAAAQQQQAABBBBAAAEEEEAAAQQQQAABBBBAAAEEEEAAAQQQQAABBBBAAAEEEEAAAQQQQAABBBBAAAEEEEAAAQQQQAABBBBAAAEEEEAAAQQQQAABBBBAAAEEEEAAAQQQQAABBBBAAAEEEEAAAQQQQAABBBBAAAEEEEAAAQQQQAABBBBAAAEEEEAAAQQQQAABBBBAAAEEEEAAAQQQQAABBBBAAAEEEEAAAQQQQAABBBBAAAEEEEAAAQQQQAABBBBAAAEEEEAAAQQQQAABBBBAAAEEEEAAAQQQQAABBBBAAAEEEEAAAQQQQAABBBBAAAEEEEAAAQQQQAABBBBAAAEEEEAAAQQQQAABBBBAAAEEEEAAAQQQQAABBBBAAAEEEEAAAQQQQAABBBBAAAEEEEAAAQQQQAABBBBAAAEEEEAAAQQQQAABBBBAAAEEEEAAAQQQQAABBBBAAAEEEEAAAQQQQAABBBBAAAEEEEAAAQQQQAABBBBAAAEEEEAAAQQQQAABBBBAAAEEEEAAAQQQQAABBBBAAAEEEEAAAQQQQAABBBBAAAEEEEAAAQQQQAABBBBAAAEEEEAAAQQQQAABBBBAAAEEEEAAAQQQQAABBBBAAAEEEEAAAQQQQAABBBBAAAEEEEAAAQQQQAABBBBA4G8CS5Ysqbthw4bysCCAAAIIIIBAHgo88cQTp9avX/8DKXpq++2333zUUUe9PnLkyCsWL15cLw+rQ5ERQAABBBAoeQLjx48/W2r9p+l/e++995pzzz33oSlTppy8fv36iiVPiBojgAACCCCQBwLHHXfcLLeAXmxbSlrvc2+66aYr5PN8/TyoHkVEAAEEEECgZAjUqVPnIx8B/W8t+X322ef/evfuff/TTz99Irn3kvG8UEsEEEAAgYQKnHrqqZOCBvTix7Vu3fq1UaNGXb506dKDElpdioUAAggggEBhCowdO/aCsAJ6+nn23XffL7T1PnXq1M6//PILPecL8/GhVggggAACSRH46KOPaklZUlEE9bRzptq2bfvK6NGjB9B6T8qdpxwIIIAAAgUnsOuuu66LOKCn595T1atX//yCCy64d9q0aZ1ovRfc40SFEEAAAQRyJdC1a9enTAH94IMPXnzCCSdMK1++/IaIgv7/Wu+33nrrpfK14MBcGXBdBBBAAAEE8l7g7rvvvtAUrBs1arRYK7h58+btX3nlldYDBgwYXbdu3WURBfc/a9So8XmfPn3GPv/888f/+uuv5fIelwoggAACCCAQl8AHH3ygvdKNefRMQ9K++OKLfe+9997zO3fuHFnrvXTp0r8de+yxL9122239P/nkE83184cAAggggAACbgJueXTtqe52rLTed3j55ZdbX3bZZbccdNBBgce121r9++2336cXXXTR3S+88EKHjRs3luGOIoAAAggggEAxgRNPPHGqKaBeeumlY/yASet9b229S+79uahy72XKlNkos9zNvP322y9ZsWLF/n7Kx74IIIAAAggUrIAGRlNAP+SQQ94NWvFirffIcu/777//p3379r3rxRdfPE5a72WDlpfjEEAAAQQQyGuB999/X+dmz5hH33bbbf8Ia2rXVatW7auT2UTdeu/QocOLd955Z9+VK1fWyOsbQ+ERQAABBBDwI7B169ZSFSpU+NnUStde537O52Xf33//fceXXnqpjXzSv1XmlP/YdO1s/3utWrWWX3LJJXfMmDGj3aZNm0p7KRv7IIAAAgggkLcCOt7cFDwvv/zy0VFXrKj13qlTp+ejyr2XLVv21+OPP/6Fu+666yJa71HfUc6PAAIIIJATAZ3cxRTQDzvssHfiLFSx1ntkPecPPPDAT/r163f7rFmzjtVrxllHroUAAggggEAkAosWLTpYThx5Hj1I4bX1fs899/TR1nu5cuV+yfYzfKbj9bx6fr2OXK96kHJyDAIIIIAAAjkXsOTRU9qDPOeFlAJoS1pa1G379+8/pnbt2p9EEdz1nJrX1yF7kudvS+s9CXeeMiCAAAIIeBaQ/PJ0U4C84oorbvJ8ohh3lNZ0NW1Vd+zYcXpUrXfN6WvPfO2hL+Ps94mxelwKAQQQQAAB/wKjRo0aaArozZo1W+D/jPEeUaz1HlnPecm9L2/fvv3MCy+8cKxMbMO0tPHeZq6GAAIIIGATePvtt5vIPhnz6Ntvv/3m3377La+mXNXcuy4+I633F6JqvesPoMaNG79333339dY57m3GbEcAAQQQQCByAdt4dMldHxN5ISK6gI5Bnzlz5jHSq/027d1u+hKR7X+vV6/ehzrM79VXX22lM+VFVB1OiwACCCCAgLuAzJE+wxTUrr766hGF4ifj0Ktr6136DbwYVet9p512Wi/z5D/7wAMPnPfll19WLRQ76oEAAgggkAcCI0eOvMIU0Fu0aDEvD6rgu4gZWu+adjAuKRu0FV+/fv2lgwYNunn27NlH0Xr3fZs4AAEEEEDAj8CCBQsOdQlYqXzLo/upe9G+n332WQ2dC157/e+4445bggZwt+O053yXLl2mjh8//mxpve8dpJwcgwACCCCAgFFgy5Yt2+nypIZglHrllVdalxS+Z599tkulSpV+iCKgFz9nw4YNl1x55ZUjX3/99SPlHmxfUoypJwIIIIBAhALHHHPMS6Ygds0111wf4aUTc+qHH364pxQm9M/uXn4c7Lzzzj9269ZtkrTez/rmm292TwwKBUEAAQQQyC+BESNGXG0KPEcdddTc/KqN/9JKMD/LS+A1fcXI4tg/ix9bqlSplK5JP3jw4BHz5s1rJiMRtvVfI45AAAEEECiRAm+88cYRptZpPo5H93MTnZb5PwKr1yB9nfzpeuyyspspbRH43FqGXXfddd1pp532xH/+858zvvvuu8p+6sa+CCCAAAIlTEByuNu65NH/lF7aLQuRJMuW+f8CtfODYBvpOb+jzn9/8cUX33HAAQes8PqDwM9+0nrfqivhyW+IoW+99dahqVSqVCHeF+qEAAIIIJCFQOvWrV81BZehQ4dem8WpE3mo12B+1llnPaz/M9nItgmZKvjf//53P+05r1PGuv1Y8hPQi++72267fXfGGWc8+thjj532/fff75JIaAqFAAIIIBCvwLBhw64xBRcJ9rPjLU20V/MTzLUksv+Z8n8ZO8zVqFHjc1tpN27cWFZa7+2ibL1vu+22W4844ogF119//TWyNG5jWu+2u8J2BBBAoEAF5syZc6QpaGkLs1CGVskyrLd5aRWnt7w///xznfXN2AP+xx9/rOjnsZDWe8077rjjYpmlL7LW+x577PGN1mHSpEndfvrpp539lI99EUAAAQTyWEDHo2sHOEOwS82dO7d5Hlfvf0U/++yzjZ/O0+vtfGL/W3WrV6+uLfGMHdxk/HrnoDbSei/zwgsvtJeV3O52WvtZdaLLVMbtttvujyOPPPLNG2+88arFixfXD1pWjkMAAQQQyBMBGaL2uiloDR8+fHCeVCNjMbMJ5npCp8WeMdjqAjBh2Xz88ce1br311kvbtm37qsxat8l0P7L571WrVv3y3HPPffDpp58+cf369TuFVXbOgwACCCCQEIFrr712mClQyOQzrySkmL6L4TGYp4p6rGe6gFvevVGjRu/7LpSHA3755ZdyU6dO7dS7d+/79t1339XZBHHTsTvssMPmVq1azRk1atTApUuX1vVQLHZBAAEEEEi6gCwBerTpxZ+veXSPwfyv4WemeyR5dF373JRHT0kePfI89QcffFD35ptvHnj00UfPcUmPZPXJXn84yA+I++WHRGf5QVE+6c8s5UMAAQQQyCAgC7Hs6BYoZOaypvkEF1YwL6pzVHn0IKbyqbzClClTTurVq9dDe+2115ooWu/6yV8//UsK4DJJBRwYpJwcgwACCCCQIwFZMvUNU3CQTlVX5qhYvi8bdjDXAkge/RGTjeTRb/ddyBAPeO+99xrecMMNV+mSt9oJLooAX7NmzZXSee8e6cTXQYfihVh8ToUAAgggELaAzCE+3BQMZJjVrLCvF/b55NN3Jclpv+cloDl5cc9FyEUe3XPh0nb84YcfKj355JPdevbs+UiVKlW+8WLhdx9Jwfymz4MOv1uxYsX+QcrJMQgggAACEQq89NJLbUwvd82jJ3mxEJ/BXFdX8/UnefR95AC3PLqv8ei+Lh5wZ51g5p133jlEJw5q2rTpWzIBTSStd53u9pJLLrljxowZ7WQa3NIBi8thCCCAAAJhCUgevbTbeHSZQ/ywsK4V5nm8BnNdqtRvyzy9nEnKowfx0yliH3300e7y91jlypW/89sy97K/PD9bdt9992+lBT/jo48+qhOknByDAAIIIBCCQLNmzeabXtzSy3pQCJcI9RR+gvn777/fMJuLd+nSZarJJszx6NmU0eux+rVl/vz5h8ua98OaNGnyri7d6iVg+92nVq1ayy+99NIxL7/8cpvNmzfv4LV87IcAAgggkKXAlVdeeaPppX388ce/mOXpQz08zmCuBb/tttv6mWyiGo8eKpjLyb799tvKOhb/X//616RKlSr96Ddwe9m/fPnyGzp37jztvvvu6/3FF19oCoM/BBBAAIGoBDQPKufO2FqrUKHCz0nJo8cdzNVbWvg6dapprHcs49Gjuu/p5/3jjz+2k+l+W8iPu5EHH3zwYi/BOsg+9erVWzpw4MBRr7322tG03uO4s1wDAQRKlMCGDRvKuXWeWrhwYeNcg0hgbeClN7vmzLP9zF68rnpOQ/BKybzuXXJtE8X1v/rqqz0ffPDBXieffPKUnXbaab3pB1+QoF50TMWKFX+S8z8j1zlXrrdXFPXgnAgggECJEzjssMPeNr2cb7nllstyCaIBWj4J/2ALHlEEc6235NGnma6d6/HocdwXbUlLi/ooXcRGl2213Yeg2/XLgKZ/dGEg/WIQR924BgIIIFBwAvIZ9GbTi/iEE054PlcVznUw13pLHr2/ySbf8+he76t2pnNa6llNNes12GtOv1u3bpN1hILk+nf3Wk72QwABBEq8gM4GJgiJyqN7DebSsntfxoxXi+omOnn0vBqPHqaF5tbLli37q9dgHPZ+2hv/kEMOWTRkyJDh8sOiaVL6dIRpzLkQQACB0AQkj17eJY+e0qlGQ7uYhxP5CebaWc7DKbPaxSWP/mc266NnVagYDn7llVdaly5d+rcgQVqO2xzkONsxu+666/enn376EzK+vsd33323WwwMXAIBBBDILwFtBZleps7wrVgqlLRgrpUupPHoXm/iiy++eJwst/q7LcCato8dO/YCPUffvn3v3H///T+V/UIf9645/cMPP/ztoUOHXvv222830ZnyvNaP/RBAAIGCFbjssstuNb2cTzzxxKlxVNwJ5tYx0fqZPY6WeVGd3cajy/Kmr8dhE+c1Jk2a1M1jIDcG6TPOOOPR9DIvX758f3U89thjXwra6reVSWes0+s+/vjjp8kc97vEaca1EEAAgcQITJs2rZPphSmfOddFXVDtAOVlgpO4g7nW25ZHj9omzvNPnDixu5dZ5LT3v04ra3pm9txzz69M5f7111/LPffccx0vuOCCe53pdUNvvcsqdFuOOOKIecOHDx/y7rvvHkzrPc6niGshgEBOBSzj0VNLliypG1UB3VY2Sw8YuQjmRXV2G48+e/bso6KyifO848aN6yXB3NqTXXqgP6Wd077++mvNYRsn3vnss89qeCn/smXLDhw9evSA1q1bv5bNZ363Frz+wJBldidMnjy5608//ZS4hXW8OLEPAggg4FnAbfKWO++8s6/nE/nYMR+CuVbHbTz6ddddN9RHlRO5q+S8+7gFxKJtPXr0mJje2tWV10zHjR8//my/ldUOms8880yX884778G99977Sy9l8ruPLijTsmXLuSNHjrxi8eLFOhsgfwgggEBhCTgTpWRscZ1yyilPh11br8FcJjWZEPa1/Z7PbTx6vufR3eqWHix79eo1rvin63PPPfchU0DVNdr9OhffX78MaeCVAPyGy8qA1q8KbkFffzjoD4inn376JPlBUSHbMnM8AgggkHMBbRmZXnxh59GdYG7NnSYhmOuNsc3rnvObF7AAgwcPHuGlhdu/f//bMl3iP//5zxmm4538eMCS/fMw/VQun8xPkU/nD8sn9K+9lNvvPvrJXz/9jxo1auCHH354UGiF50QIIIBAnAKyfnYluZ5xEhV5wYWy3nU+tczT/S159JZx3qswrtWnT5+xXgKeLrlqup7k0au4nCPlbA+juH87h34pkM5uDaXT22Dp/LYgqmlpq1Wrtur888+/TzqNnvDLL7+UD70inBABBBCISqBBgwZLTC/oe+6558Jsr5uvwVzr7TYeXfLo12VrE9fxGgzl8/l4L8HcyxwENWvW/Mx0rkceeURb8JH/yTC1SjpcTYet7bbbbt95qZvffXbcccdNxxxzzMtjxozp//HHHx8YeaW4AAIIIJCNgEwEcpfpRSdrZ0/O5tzay9jLSzQpn9mL17UQxqNrMNeObV7ug04O4+V+6ydw0/nOOecc/eEQ65/WUSea0R9ZsvDQQi/D8Lx4FN9HfsisvOiii+6WqZOP37hxY9lYK8nFEEAAAZvAU089dbLsk/Gzu067aTvetN3tpZ/+okxqMNd65XsefcuWLdvroie24KUBUIawneP1Xrt9ddlvv/209Z7TP5kitrLm+k877bQnnGc4q050mfzKlCmzsX379jPuuOOOi1euXFkjpxXm4ggggIAKSB59Z1NA1xeZfGqs5VfKazCXXvYZO175vV7E+xv7GCR5PLoug9qhQ4fptmCuuWiZXOZ0P4YSwHRxHKNLVHl0P2Us2lfHz7/55pvNpDPg8MaNG78XUes9VatWreWXXHLJHTNnzmy3adOm0kHKyjEIIIBA1gJ169b90PTiv++++3r7uYDXz+zSyuvp57y52leGqM022SR1PLoGlLZt275sC+Y6LGzq1KknBLF1ZobL2PLV2eeCnDOOY7755psqOl6+a9euU9wW4bHZuW0vV67cLx07dnxB+qD0WbVqVWQrA8bhxTUQQCDPBKT38z2mF5SudOW1Ol5b5vkSzLXeTtDOGLiSOB5dc7syhlvnm3f9zKzDtWQxlXZe723x/c4888z/mK7x73//+4Gg543zOE1JzJkzp+UVV1xxk3QOXWozC7pdv4LoYkiyml0b/XISZx25FgIIlDCBJ598UhfnyPgJ1Rn/axUptJZ5UYXls7oOTzN+XrbCxLiDDrNq1qzZfFvg0cVSJLi0yqZoDz30UC/TdfTzczbnztWxX375ZdX777//37o4UYUKFX62OQbZrufVWQjlOr3lenvnqq5cFwEEClTANh59xYoV+5mqrqugFWLLvFh93fLoiRiPrvehSZMmC21BpmzZsr/OnTu3ebaP8n//+98aLteKbDx6tuX2ery2pHV9+AEDBtxy0EEHfWRzDbq9fv36Hw4aNGiU/HA8Wr8YeC0f+yGAAAJGgdq1a39seik9+OCD52Y6UIOI23zw6efLp8/sxetqyaPnfDz6unXrKrv1gyi6DxUrVvxpwYIFh4X1z8Alj5564oknTg3rOkk4j+bCNSfeqVOnFzRHHjSAux0n92e9TrmsXz+++uqrvZJQb8qAAAJ5KNC7d+/7TS+b4mtda/WcYP6+hxdbKp+DudbVmUQmkXn0tWvXVnE+cbvmzGWp2h9knvRQFybp3r37Y6b7r0ul5uE/A09F/v3333eU3uzH6loIXuw9/BvJeO9ktcHFV1111Y1vvPFG8z/++GM7T4VjJwQQQOCxxx47TRRMefS/rXXtNZhrL2InB53XwEnNo69Zs6aq26xtRYGkcuXK38mSpaFM45t+IzXfbApW8pl6WV7fdB+Fl4lmOmoqI2jg9nKc/iCTiZ4mTZgwoee33367u4/isSsCCJQ0AWeta2OuWNa6ru6nZa7BXCZmaVhAjokaj7569WqZdrzaKlswqFKlyjfSB+KAKO7DJ598ouc1ro8ufTN2ieK6STqnPOMNNNja7kOY22Us/VbpL7FI5ty/fv78+U11rH2STCgLAggkQMCy1vVZ0jKvKDlz62f2Agzm2yRpPLoE6FpVq1a1rh2u+0Q9i5mzKl+moJ6SldK6JuCxjqwIEswPlmD+Y5jBOsi59AuMpj8effTRHjpLXmQV5sQIIJA/ArLW9YOmF4pMo/m4BPPFtheOE8wb5E+tvZXUbTy6DkPydpbs95JP5wfpC9x2H7T1Lq34fbO/ovsZnPn+M7bSdd7zqK+fq/M7wTxQy3yvvfZau++++34hZbcuJ2y7z8W365j3pk2bvjV06NDr3nnnnSbF17PPlRfXRQCBmAVk/useppfMdttt94ft5VKowVxvg5NHzxi4nE+ukd8t6dTm6fOudtSS/HosvaRlQZc+pudChmR9EDlKDi6QTTBPs9pm6dKldW6++eZB8vVnjs7aZ/v3FWT77rvvvlYnAdJRB7JCXcGnQHLwOHBJBJIpYMmju/aiLuRgnna3jHl0zaVGeVcXLVrUWIed2V7qOnxNh7FFWZb0c8sXA11WtMTk0b0Gc+2h7jK1bKr4OgDr16/facqUKSfJMrfjvKRTbM9Bpu3yo3xL8+bN540YMWLwe++9V0j9W+J63LkOAvkl4KXXdPGXhRPMQx0SlUQ1tzy6l3XEg9ZJJoJpUb58+Q22l3jDhg0X6wiEoNcJepxbHv3pp58+Meh5k3acrjLnJWcuwfx9vQ+SinnWdM9s6wDoD8QbbrjhqhYtWszTQGy790G26zwCutyt9nXQHxRJ86Y8CCCQpYDM+qbrWXteblJeXktyEUSyrGagw93Go0eVR9fZynSqVts90Vni5KVcMVDFsjxIJ0MxlU9XIMvy9Ik43G3J2PS6FwVzLbTzIy/r+QvkU3klnZ65Z8+ej+ioBTl16Ll3/eR/1FFHzR05cuSVktqplwh0CoEAAtkJOJPAeH5haP5Yp36V8bFnFnpgt+TRtbdzqH+yeMpxuoiKLZjr/O06j3uoF/dxsrvuuquvqYz66dnHqRK5qxPMrf8m0oO5VsT5rG5MRwSprHZyW7hwYeNhw4Zdo53fpBOctW+L7fnJtH3vvff+v/POO+/BZ5555sQNGzZUCFJWjkEAgRwLyDCnfbJpAWhPeO1hW2Bj0NPvSix5dF3W1EtHKV0mVVdYy+Vj88EHH9R1eWZSEhBy9mMjWxevLfOzzjprguFaxh8COn97tuXTdRh0PXsdtuZl9EOQ4K4/Klu3bj179OjRl0cxQVG2BhyPAAIuAm5rXft5IWi+0Wm99yyU1rslj94/jAdLc5peWl4dOnSYnpTlOF3y6H8GXXM9DMtszhFCMNf5C+aY/s3Y8uh+y64TzOhc/TrhjKRg3pUJaKxfFfz8e3b2TVWvXv1zmdp37HPPPdfx119/Lee3nOyPAAIxCsgwl0cC/EO35t11Uprbb7+9Xz633qPOo48bN+4cLy9i7XCVpNW5dMlR0zNz6aWXjonx8Q3lUmEEcy2I2/wFEuznhlJYw0lkitjdNBWmU8Z66cwX5N+89u849thjX5b+Av1l5sBaUdaHcyOAQAABWe3pHDksil/3fwX9GjVqfK5rqEvrrXM+td6fffbZzqYXn/PSDCD+/x0iY7ov8PJS7dat26SkTfepL3RT2Q855JB3A6Pk4MCwgrkWPYo8ehASXdxFFnk5QhZ7ucHp12D9Ae7lWSy2T2q//fb7tG/fvndNnz69fa5TQUGcOAaBghOQta513vZIA3rxl0WrVq3mOK33SMdzZ3uz5MeHDu8JPY/u1iM63apHjx4Tkzj7lzMOP2OQ0PRBvuTR9Ueml0DmkjPP9Iglah0ALaAsz7qnLtN68sknP+1lfgMvJsX3KVOmzEZJC8248847+0rfnJrZ/tvjeAQQCCjglkeXYUpT5Fe+zgIWxa/8P53W+8Oae01i6117M5vq7rRUfalfe+21w7xY6qQjSQzmWln5YlCqQoUKPxvqkZIVyTr4QsnBzhEFc9s6ANfloKp/u6T2w9AvCQMHDhxVr149XSUvkn/XOoOhLjk7a9asY3QJ2lzXm+sjUGIE3Na6Pv/88/+31rUu1qKfJ7W14jIrVtYvh6S13vWlZHrp+R2P3r9//9u8vECd/RL9/J1wwgnPmepy+eWXj05y4b0Gc6cPha+qWPLor/s6WQw7f/HFF/vcd999vTt37jzNy4RGXp7f4vuUK1ful06dOr2gaSa5XuRrDsTAxiUQSK6As9Z1xk+FderU+ThTybWzmwY7nWwmyD9yL8ckofUuefQuprJ6zaNrS7tPnz5jvdRZWvBDk/uk/P8lu+WWWwaY6nPYYYe9k9Q6eAzmKWeOBt/VSEoe3XfB5QBtvb/00ktttWNj7dq1P/HyvAbYJ3XQQQctGzBgwC06kVJSRm4E8eIYBBIpIEt01pCCGfPoa9eu3c2t4J9//nk1bb1Li3VqobXe5cvEzi42Kdu87hrMJRf+mJcXX5RTyob94OmEJ6Y6JTWPHnUwTzNOXB49yP2XXHh1zYlLbvxFzZF7eYb97qOtd/nq9wh59yB3iGMQMAi45dGfeuqpk/3AaSvFab0v9vsP3Ov+6a13P2ULsm/QPLr2Tpde6k95qZPT6z1I8XJyjNbNLY8+Y8aMdjkpmOGiMQbzWMejx2k8c+bMY7VXu/7b8/JM+91Hzp+oZyZOW66FQKgCp5566pOmf4AXXnhh4LWupfW+r36+jLr1LmOjn5We85fI9bTXfqh/QfLoOm7cybG79iuQceh/ynj0s0MtcEwnO/744180PTNXXHHFTTEVw/Uy2tFSnw0PwSXwZ/biBci3PHqQ+7R8+fID9N9bu3btXvKy/oAH/z+lL88TQcrCMQggUEzAbVy09IZdGhaYzpEeR+tdO5bpuPcwym3Jo/9Q/BqbNm0qrUN4bC8x+TS9VafyDKOMuTiHru9tqqPMOb8gF2VKv6YGc5ng6D3bfZDtoQVzvb5bHl3XQ8i1S9jXlxnkyj7//PMdZUa5+2RmuVUevDP+yN1///3/G3bZOB8CJVJA5m3WmZ+MuT+dRzpsmHxpvfvJo+sEGy1bttRZwVxb5jp3e75Ok1r0HLz11luHmuqp9fvtt99Kh/3MeD1froJ5WvlCn7/Aa91zvd/SpUvrjRo1amCbNm1ec3mn/OPfR/v27fWLD38IIBCGQK7Xuk7LvUfZc36ltN7H+G29u+XRJaVwtvrrKmhOy9Q1mOsCGLK6Wt7nC3U8uktnqZT0mG4TxnPp9xxeg7l24JRn7ki/5/eyv9u87vnU+dFLXd320dXbZLrYl2w/cDXwa6/3bK/H8Qgg4AjoPNCmf3jymVzHUMf25/Scjyv33s+We3fLo+vYfF2fXNcpt724NN8oL65WsUFGfKHjjjtupqnOgwcPHh7x5f9xej/BPMp1Btzy6H7nL4jbMMzrXXzxxXfa/k1oML/ppps0fcMfAgiEJSBrXV9k+sfXsGHDxWFdJ8h5dF51/VGhqz95eEEEmeAmJb13tfWeMffuzOue8TNqtWrVVouPdTa9smXL/jp37twjgtQ/qcfceOONV5nuR4sWLd6Ms9xJCeZa55KWRy9+n53hmo97+LeayrcRHnE+01wLgcACstb1Qfpr2fCPMBVFHj1IYbX1rp8ttee8S3mDBPW/HeP0nNfW+746U14219I5tHW5yyD1TfIx8+bNa2p6aTt59DJxlD9JwTytvsa5HWzzF8RhFtU1nOGaU2zBXEZ4bM3XER5R2XFeBEIVyMe1rrUXun4Sj7L17vSWDrSIjfZsXrJkSf1Qb1RCTqbD89zy6K+++urRURdVguPB+nXFFkA0Zx7lZ/bi9bTk0ftH7ZKL8/sYrpnXIzxyYcs1EfAtcNJJJz1jejFqZzLfJ4z5gLha77bgUbRdfyAVajAvurXHHHOMsdNTkPnQ/TwyGsydoWCuX2TiDuZah5KWR/c6XFO/3EyePPkUP/eZfRFAIICAThYhh2VsiTZu3FjH9ObVXwytd2MgqVKlylqZVveAvAILUNjhw4cPMf3AkVZqZAuS+AzmsS/V63f+ggD0iTnEGa6p97pEjPBIDDwFQcBNQF6S9UwBPalzdHu9o3G23nfaaacNsoxoR69ly+f9pKNfc9OLXFtj+hk27Pp5DeY63DBXy/L6mb8gbJ84z+cM15xvC+aFNsIjTmOuhUAgAdta1zIj1PGBTpzAg9Ja76ttL6Og23VFNplH/OEJEyb0zFVgiZpeAvZ2bnn0OXPmhDrWOx+CeZG5ZR2AflHfm6jP73W4ZiGO8IjalvMjEIqAro1sCmC67GEoF0nYSXQcuvacd+vIFDSopx8nnevel7RGvzg7Z8VBLevY66xgGT+3Dhs27JqwypBPwVzrHGQdgLCsoj7PunXrKjvDWV0/sxfqCI+ofTk/AqEI3HrrrZeaXs6HHnroolAukuCTaEtaW+86YUyEPef/TFsxrnO+t96HDh16remZkSlAXw3jdkswb+SlA1wuP7MXr2eh5tFlSeUqtWrVWm77keuM8NA0Hn8IIJALgUWLFh0s183YMS7f8+h+PSU/3DKs1aRsLz9p5c5xWu+xd+Dy61J8f110x1Q//RyfbR7dmV7XOmwwScFcjZwfagU1r/uaNWuq1qxZ8zPb81y5cuXvZI2IOtk+WxyPAAJZCrisdf2nzEN+XJanz4vDZYrWo51gbg0ktpeb3+06rlpz77qASz603nUhFu0AZ6hn6o033tCOc4H+JJif5cUvacG8qLKFlEdfuXJlTZkZcZXtflStWvVLGeGxf6AbzkEIIBCuQMeOHV8w/aMdNGjQzeFeLXln00Cqi6jYXlxxbXda75ckeYYxt1XmRowYMTjIXfYazKXvw+yk/vAplDy6BOhaMhTzG9szrwF/9erV+wS53xyDAAIRCMjyh5eb/uE2bdr0rQgumZhT6qQXmlqwvbgybZec4XqdTEVaZYuDHO/lmKTm3q+55prrTeWXFbde9nuDvQZz7evg99xx7l8IeXT5dF5XP6Hbnk/9FC+f5PeM05drIYCAReDtt98+RHbJ+Kk5zjm6475R48ePP9v20rJsT0mP+Rpabm0xalDSOed1prIsz2vsSZyU3Ptrr72m07xmLGf58uU3+LmXhRLMnedgZ9O/Jf3vSf7qouWXmQ4beOmMqJ3kpLPc7n7uM/sigEBMAi559NSsWbOOiakYsV1GFoo4RxaMsObLNUDLcB3jmu1OMPpHudPWe18cVXBPa73Hnnu35dHnz59/uJeb6XSAsy6uk/SWeXpd3fLopufFi1XU+8iCQk112JntedXhazKMbdeoy8P5EUAgoED79u1nmP4hX3XVVTcGPG0iD3OWcLQGkW7duj2lq0k568Nn3F8CzSO2Ssa83vsltvXebeX1ur158+a6ZGpGl5EjR15hO4/28rcFD92eT8Fc6+yWR09qXWSERwudEMZ2P5o0abJQJ5ix3Vu2I4BADgWcF3DGl7O8uHWqx4L4c5uLPP1l1qNHj8d0nWettNsnYWflL182cbXeTeu9+yqsy87OD72Mz4z8QJzpdh3p1T/BFjzyMZhrnd3y6EGel7Dul+k8MsKjjZfhms2aNZuvU79GXR7OjwACWQrIJ1Jdv7ug8+ga4LwEkV69eo0rCubKKi1e7cVratFrHr16UP58br07qZiMLprC0a8bmVwKOZhrfW3j0fWeB31ewj5OhqW29zLCQ0Y1vK6LsoR9fc6HAAIRCMhkINu6zdEtv+JbRXDZ2E7Zp0+fsV6CuWnZWJdZ5FJh5kXTWu/GvL2Xerjto61EracM1+uczQ2QPHoZlxECqXfeeUc7W/7tz2sw16l5sylbro/Nhzy6jPDo6jKfwF8/1Dp06DBdl0vNtSnXRwABHwIy3GiWKRAMGTJEhynl3Z+2tLXF7SUIXnvttUNNFXRy5aY8+oQoYPKh9S7DGheYbGU45MB0F508x8t9CPMHUhT3xcs5k55HnzhxYnePnUKfzXbmPy9e7IMAAiELyIQgV5teuM5EIiFfMdrTaTDXXLiXIGJrEYadRw9Sc51yVTvoydeCVV7qFGQfp/V+m9fWuzPxUMYfOjJh0YtF9fTaMi+EYK51TnIeXUZ49PISzKVT6CRT2iTI88sxCCAQo4BM2dlMLlcQeXRtVWgvdS9Bzen17irt5NGN83TL9n1jvFWa16+mP0J0WJ2XOgbcJ3XiiSc+K73RjT3np0+f3t507qI8eklqmRc9A7b10eN+XorKJc96Hy/PgvwQfjS9H0mczzbXQgCBEARsa11rfjeEy0R+is2bN++geT/bi0tbKToe3WuB3FZjy3XLMm2996ha76mi1rusef7Xc7Bhw4bybjPtyYp979rug27PtZ/XZ8DPfi559FD7XXgtk9cRHtLf5B6CuVdV9kMgwQLO8pcZP6HKLKdDE1z0/xVNO++0bdtWpx51HWcuQWirTvvqpz7OGOJY8+h+yle0bxytd5lN7CdpvU+bMGHCmQ0aNFhq83bbLsG8Z5B6Jv2YXPS7MJl4HeFh6hSadGvKhwACGQSGDRt2jenlq9OOJhlNh9Xo8BpbcNGevbogi9+6JCGP7rfMur+03js7uffPbTZxby/UYK7uSXlepMV9r5f7qusSBHm+OAYBBBIqIJ9Tj5SiZcwVh7HWdVTV1gkvdOIL24tLx9wGXRI2aXn0IJbFWu/WqW9tnkG363z3Mq95wyB1yJdjnPHmOet34YzwGO/hHqVsnULzxZxyIoBAmoCOR3db61qmiAy81nVU0DqRh05JaXtx6dSW2Y6nT3IePYhvDLn3f6QoSkIwL7oXuXpetHe6l06h0o9kq3SUOz/Is8MxCCCQBwK63rQpOF5//fVDklQFWSSict26dT+0BXNdAUwWn9DZ8LL6c8ujO2OPszp/Lg/WGe/Ses5H1nqXXu/js5ldL5dGfq9tyaNb1wHwez3dX0d4eBn9oMFcxqOfHuQaHIMAAnki4EywkrHzl3Q4ezUp1ZDlG6voMo62YK4rSC1atKhxGOV2y4s2atTo/TCukZRzaOtdA1JU4951tbio55vPtWXceXSvIzx0ZILfTqG5tuT6CCAQQEDWutZhSRkDelLy6GvWrKlas2bNz2zBXNd2ljWe6wdgyHiIbV53Z/xxWJdLzHk0362td+frjbbeQ2/BS6/5qboCW9Ea84mpfBYFccabx5JH106hXkZ4OJ1CO2VRLQ5FAIF8EZA5und0y6PPmzdPJ6DJ2d/q1auryd8qWzCvUqXKN8uWLasTdkHd5nXXHuVhXy9p59MfLdp6l3HWH9juQdDtaTPW+R6NkDSvOPLoXjuF6qpq0im0XdKMKA8CCEQocOSRR841vYxvuOEGnSI2J38rVqw4oGrVql/aAoXus3LlyhpRFLKQ8+hevZzhZtY15W33yct2+cryo85YJ2Pee+Zj7j3q+Qt0fXKvnUKT2KnV6zPHfgggEFBg8ODBw00v23bt2r0U8LRZHSat7YMqV678nS0IaOtdWvGRTcVakvLomW6YW/1t9yaM7dpXQXPvMsSyZVYPVEwHR5lH1xEeDRs2XGxzDatTaExkXAYBBMIUePnll1vL+RIzHl3y4A00H257cWleXfLre4VpUfxcTl7UuD56oebR1SHXwbz4/Xda71OT3Hp3xqO7PS+Vgjyv2inUywiPMDuFBiknxyCAQI4FbHn0t95669C4iig91A/Rl5ItmGuPd33JxVEuSx69SxxliPsa2Qbzu+66q68O7RO7/7Pdy6Dbk9p6D/t58dopVL9ohdkpNO5njushgEBIAkccccQ804v1pptuGhTSZVxPI2PHD9fPhbYXvH521DHpcZRJr+E2vjjfx6NnMhw6dKhOC2rNmcukMT+b9rv33nv/msBEe7I7Y96neTlvkH2SlHsP83nx0ylU+5zE9W+C6yCAQIIFrrzyyhtNL1JZzWxG1EWXWd1a6+xutpe5dgjSjkFRlyf9/BKM+pvKVWjj0b2uZa6dvy688MK7TS6nnXbak6Z75Ix5nxDVmHctUy5b7/J14+wwnhfp6Fkz151C4/x3xrUQQCAkgZkzZx4jp8qYRy9a6zqkS/3jNDrfus67bgvmOn+7DtmJqhym88q47AYuZUsVSh7dRzD/36xnkyZN6mpy2XPPPb/2cp/U1hnzPsf0/NmeC9v2tNz7WXH0nA8jj66dQnUopq1uUXcK9XIP2QcBBBImIGtdl3NZ6zq1cOHCUGZfK15tWQmts8s4+L8+++rKajqZRq7YdE5yw8s1VQjj0b0G8/RVur7//vud3QLO8uXL9/dzv+SHUUW11NZ/HK1354eanyJ63jebPLrXTqHajyTqTqGeK8yOCCCQLIHDDz/8LdMLevTo0ZeHXVqZjrKry4+Iv4K5fPKfrmufh319P+dzmy873/PoHoN5KtPyp7Vr1/7Y9Mw88MAD5/kxLr5vXK13qf/D2nNeh4VlU970Y4Pm0XXaYi+dQrXHe5z9SMJy4TwIIBCTwMCBA0eZXs6dOnV6IcxiyEIR3XXBCLcWnm6TQPqsLkAR5rWDnKtQ8+jZBHN1PP/88+8z3cMePXo8FsQ60zHOjHVRt95Tknt/TzsFZrvca5D5C2QimBZeO4WG+eMjrHvEeRBAIEEC06dPb296OYeZR5clHC+QYG6dH1yWhJykS0MmgagQ8+jZBnO9L48//vhppmdG8uhfRXXv5H7UT8u9W3vk2344ZtquuXc1CtJ695tH106hOlWrrZy56BQa1T3kvAggEKGALY/+3nvvNcz28voStr20dLu07iamUqlS2V4vzONd8uh/5lMeXVt3rVq1es3Lfcj0mT3d9Ouvv97D5TypTz/9tGaY98DQek/Pva/2Uq8g+zit92u95t4tz8tf8xdIp9D2XjqFaj+SXHQKjfr+cX4EEIhIwG2e6DFjxvTP5rJexzf36dNnbNKCudZbPv8bx1HnSx5dg7kGJi8BzRbMi56FAw44YIXpfOPGjTsnm2cmyLFpuffXvdQzyD5O69019+7leZFOoSd46RSqK6vluh9JkHvBMQggkEOByy677FbTC855QQUqnc7H7eXFKfuNCXSBGA7K9zy6j2CesQOcifjcc88dZ7q3PXv2/E8Mt8Z4Ca2z5rO157xbi9nLs+myj+be33dy7wcXFcbyvHwg/UhO99opVNc+z6Uj10YAgTwUeO655zqaXlyaRw9SJW1xe3lhpg+JCnKdqI/J5zy612CuQW/27Nm+FkJ59NFHzzDd3yjz6EHut95Dfc5kOdglXp7JIPtI6/0nzb17/RHrdg0dXZGETqFBrDkGAQRyLCB59PJu49EXL16sk6x4+tPP5r169Rrv5aXo5NY9nTeXO7mNR/cbCOOqh59gHqR3t5NHN3VyTK1atWqfuOrq5zrFWu8/eXlO49xHRwkkpVOoH1f2RQCBBAm45VjvuOOOS7wUVV9E0kv9KdsLUIeuaa93L+dMwj5uedEkfmGIOpgX3RNd+c50r7WXeBLuna0Maa33xbbnNurt8kN4XBL7kdgM2Y4AAgkTcDp4ZRwKdPLJJz9jK65+InQLfEUvQw3mmke0nS9J293yokcffbR2wkrMX1zBXCvsNgTunHPO0a80efUXU+49478xJ0WVV14UFgEEEirgDMHK+Al11113XedWbO284yzm4jo2WD/ry0xxpySUwFgsHf/s0jpTs0T8STkP9rKmvKYQgnxmL15Jt4lU9ttvv08TgZJFIdJa7+/LaaxzKLg8I67/LgYPHjwii2JyKAIIIPB3AZmju5LLSyu1dOnSOpnMdFiNDK95xfYy02E6MlynU766W/LoR+W6XnEHc62vM5GKMY8uefZY1q6Pwz6q1nu+9COJw5hrIIBAiAINGjQw9gK+++67Lyx+KZ3wQia+mGsL5joblq6uFmJRYz+VJY8+NPYCpV3QazDXxUPCaJmn19Xp0Z6xBSo94Xvk0iXKa6uj9J8YKj3nF9uef9P2fOpHEqUl50YAgQgE+vbte6fp5SOd3SanX1LXJ5cJaRbZXma63rnMV908guLGesqk5tG9BnMJPO9HMRf4mWee+ajpGTjvvPMejPUm5ehiujyrrofeuXPn5+RLlHWtAu1HkovJd3LEw2URQCAXAlOmTDlJrmvNo2tgaNiwoXVMry46sWDBgsNzUZewr5nEPHqug7kaP/TQQ71MAV2X+gz7PiT1fE4/kpm2H7j52Ck0qeaUCwEEXARsefSPPvqoli7fKMs4LrO9uHQ5SF0WspDAkzQePQnBXO+tzNtew/QjUP97IeXRTc+y04/kVdu/iXzvR1JI/5apCwIlQkDXXDa8mFKjRo26XFpdxjm8i46rXLnyd0uWLNGe4QX1J0PUZpte2nGOR5fJbI7y0ps9qs/sxW+qSx499cQTT5xaUA9Bscp47UeiC7FIP5J2hWxB3RBAIGECblO2yif0jbZWSJUqVb5ZsWLFAQmrVijFcYJ2xg5gcY1H11ytS4v4r7LFFcwVtnv37roGekYXZ+30UPyTdhKnH8lC278J7RQqS6UenbTyUx4EEChwgUmTJnW1vaBM26tWrfrlypUraxQqkTPNq2lMceTj0d3GfaffkziDud7r+++//9+mZ6JOnTofFeLz4PQjWWz7t6L9SKRT6BGFaECdEEAg4QKWPLpxgoxq1aqtWr169b4Jr14YxTOOu45yXnevwVwX9oiiN7sb3CeffKJfZIw/dOSZ2iUM+KScw+lHYkpN/eXg9CNplJRyUw4EECiBArVr1/7Y1vJI337ggQd+smbNmr1KAlUu8uheg7kuF5qre+DMJpgpqKdkdkD96lMQf/KcV3V677vO/qZ9HKQfSb2CqDSVQACB/BXo3bv3fV4Dev369T/89ttvd8/f2voredx59HwI5ip46qmnTjI9MxdddNHd/pSTubd8gZIPUdVW2f5taKfQZcuW1U5mLSgVAgiUKIHHH39ceya7tkDSt8vUr7NHjx59uUwPW7fQoeLMo+dLMNd7LrOe9TE9M/Xq1Vua78+F9A2pqX1EbP8udB/pFLp/vteX8iOAQIEIyNhhbXEHWoxCWjCrtUX2/PPPd9y4cWPZAiEpXo3I8+j9+/e/zRY8dHsuP7Ono0iL9ECXZybl9M3Iy8dBAnQtHb1hux9OP5JErgOfl/AUGgEEwhHQSTBsLzDb9jJlyvx23HHHzdL11LWFE07Jcn+WqPPobsuSppsnJZgX3RG3PPrTTz99Yu7vnP8SSB68gX5Ctz3rujZ8SelH4l+RIxBAIKcCzZo1m297ifncntLOc5dccskdM2fOzOsJNix59DnZ3Lh8DeZa565du04xPRN637NxycWxMtPhIdpT3facaye5tWvXlph+JLm4F1wTAQSyEJCVsrrL4YE+u9tegLpdFm3Z2LFjx+l33XVX3y+++CKvPlO65dGdGdwCyXsN5kldclPu5UWme+/M/R/IJRcHyRoETXUMue1Zlnot1mFsuSgj10QAAQQ8CWSTR7e9BDNt1ylnL7/88tGvvvpqK13owlMhc7uTMY8u86w38Fs0r8FcOsr19HvuuPb/4IMPDnL5EZjasGFD+bjKks11ZFa3NrpKoO05ltUGF+pscdlci2MRQACBWAQ0L2h6qTVq1Oj9cuXKWaeCtb0UM23faaed1p900knPPPjgg+d+9dVXiRzf7pZHd5Za9XyPCiGYF1XWJY/+59SpU0/wjJKjHWW+9fY677rtudWUlM7jnqNiclkEEEDAn4AEmvGmFtc555wz/vfff99x1qxZx0iP7NslP25dtMX2kjRsT+lUpldeeeVImUKzxR9//LGdv1pEs7fk0Yea6iOztU3zetVCCuZaZ/kh9qzJ5dJLLx3j1SUX+8kPjs5eOoO2bNny9QIewZELeq6JAAJRC0yYMOFMU0Dfb7/9tPX+tz+dx13zqB06dHjRyyfLIAFectQ//utf/5osZespE9rsFrWB6fzZ5tF1elb9yuHFIMmf2Yv73H777f1MdTrkkEPezdX9sl1XZ7Pbdtttt9ruhzzb03W5VNv52I4AAggkSuDzzz/XudmNHeMkz76HqcD60pPPl8ddfPHFd+6///6f2l6UQbaXKlUqdeihhy665pprrpdOTIdv3bp125gBA+XRfQTzVD4Fc7V3+g9knJRIAuYfScyjjxs3rpc+S7ZnUL68PLtly5btY37GuBwCCCAQjoDLWtd/Sk/4Hl6vsnz58v2l9XZJu3btZulykraXZ5Dtu+2223c9evSY+Nhjj50uE5ns6rVsQfez5NG1pfqPv0IO5lpZ+VFVqkKFCj8b7l9KJhw6Pqh3FMe5zXCXXodu3bpNysEPxiiqzDkRQKCkCpx55pn/MQXX884778EgLr/++mtZfbHr2us1atT4PEjwth2jn0+l49KC66+//hoZT9w4lUqVClJWt2MsefSpxY/1Gsx33nnnH6Wl2zDs8sZ1vhNOOOE50/3RkQxxlcN2HafzonWKY/2RGMXzYysf2xFAAIFQBeRz5Dmml7Oz6lTW1/voo48OvPXWWy+VOeFf2XHHHTfZgnWQ7Xvsscda7YCmudKffvoplKFGkkc/ylSW4uPRS0ow14dB7uVlJpfDDjvsnawfmBBOoGkaL8+R/ugkmIcAzikQQCD3Ap9++ml1KYUxVyx59CphllKGApXT4U2y4tv9++677xdeXrp+95GezFukp/IbI0eOvCKEJS6Nudei8eglKZjrsyBfRBqZ7kkS8uge58lPOfuF+XhzLgQQQCC3Am55dGdltsgKqJOV3HzzzQMlXz3Hb+D2uv/ee+/9paYPZL7xk6TTVgU/ldEhdabr6Ixu0rGwhpfe7Pn+mb24mc4lYHBJzZgxIydT/2pLu1evXjoU0/aZPTV06NBr/TwH7IsAAgjkhUD37t0fM70Ezz//fF07PZY/7SGti3yce+65D8kylWs8vJhtL+5/bNdJRdq0afPqLbfcMkBWEKtjq1i/fv10jvKM15FAvlg+vZsC21/HOMHc9+xytrLlcvvxxx//osnliiuuuCnusmkwl1y48TlOK2sqqVPrxm3G9RBAoAAFHnjggfNML+c6dep8lKsqL168uJ5+NtfP5/oZPYoAX7169VWaR9XlYKUzX7nidX322Wc7Z3PdQmuZF/nIV5VBJhdn4Z/YHhvtnS691Cfb7pMMXdsqvd7Pj61gXAgBBBCIW0CGnO0n1zTm0WWI2C5xl6n49bSjm3R4O0U6vj0sKYKvbS/vINtluN0mHXanw+90jWwtg+THtYOddQxzpuvp5/og877n2trL9d9+++0mJmOdje23334r4+U82e6j6wLo+HHb/dZgPnHixNOzvR7HI4AAAokXcMmjpyZNmtQtaRV49913Dx4xYsTVzZs3n7fddttF0no/4IADPpVlQW+XWfNW2gJG8e0azLWzXNLcwiqPbTy6Thkc1rVM59HJjWTkxMu2e6Md9fTHYNTl4fwIIIBAIgROPfXUSaYX44UXXnhPIgppKMQPP/xQ6YknnviXjqnffffdv7W94KPeXujBvOg2HHfccTNNlldfffWIKJ8ZnWtd51y33Uv9WiCjKjpFWRbOjQACCCRK4N5779XcYsbOX/Xq1VuaqMK6FEY7R73zzjuNtRdz06ZN3/Iyf7ctKPjZXlKCud6CG2+88SqTTYsWLd6M6pnRJU2dPL1rp0idsVCmJ85Jj/uo6s55EUAAAauATP5ygOyU6Dy6tRIZdtD8v05hqz2gd9lllx/8BGe/++6zzz7/Jz3n6wYpZz4eM3/+/MPdnpkoVizTNEbDhg0X2+6NLh4kq/c1z0dXyowAAghkLeC21vWUKVNOyvoCOT6B9obWRV5kFrFhTZo0WaQdpWyBIcj2Bg0aLNWhW6+//vqRhbzYh9atTJkyG01Gr776aqswb/m6desq161b90PbPSlfvvwGuc+HhXltzoUAAgjklUDXrl2fMr0sdVW1vKqMh8LK8qy7y2pnZ8mQp6d0eJktUATZrudV1/Hjx5/9zTffGFev81DcRO5yzDHHGDulOdOvhlLutWvXVnGmInb9zF6xYsWfnJnsQrkuJ0EAAQTyUuDuu+++0BS05DPnkryslMdCa2tTWtQttWUtLewPggRv2zG6hKesGf7ekCFDhs+bN69ZIazuNXz48CGmeh911FFzPfK77rZ69epqNWvW/MzmW7ly5e9kqt/6YVyTcyCAAAJ5LbB06VKdOa3g8uh+b4qzRnmgsee2oJO+XVIc359++umPa47/u+++q+y3nEnYX/LULUzPTBjj0VeuXFlTZg380uZapUqVb2TuAO0Hwh8CCCCAgAq45dFl1rQuha6kn+BdftT4nmrWFoiKtmtvfOmV/7b0zr9Oeuk3yZcVwOTLxnYuefTUnDlzWgZ9ZnRyHw3UNkMN+Br4g16H4xBAAIGCFDjppJOMs24V+upUTjCPLGjbAlP6dglka3v27PnIk08++S8ZZ5/zmfrcHvbWrVu/ZqrbsGHDAi2CoqMF9BO6zUw/xcsn+X0L8h8jlUIAAQSyEbjjjjsuNr1EGzdu/F42507ysdm2zGX1sV8luKy2BaAg22UmvD9kXPf8G2644WqZSrZh0hz1q4KpXhLsZ/str3RqO8RZb971x5V2ktPOcn7Pz/4IIIBAiRDQBVGkohnzx0lY6zqKm6Bzt3sJtGedddbDLvuldCnVjz/+uPatt956mUxJ+tqOO+64yct5/e6jK9HJMqHjZCjhyTLJyk5RmPg55+zZs48y1UE/x/sZuifDzZrqsDObiQ5f02FsfsrJvggggECJE6hQocLPhhdq6rnnnutYSCCy2MsEW/DQ7RLMH9F6u62P7rTy/+L55Zdfymu/g969e98vk8584eU6fveR5WC3tGrVas6oUaMGSqfGnExqowuxaAc40zPzxhtveJrgRTvY6YQwNgOdWKaQ58kvpH9f1AUBBHIs0Llz52mml+qAAQNuyXHxQru832CuF5bAbvwBUBT0TQX84IMP6t50002DdDhXVMvBVqtWbZWuYT9t2rQT9AdFaFiWE0mdjPOqyyI6g23lkCla2+tUrbZgrlO+6tSvtvOxHQEEEEBABMaMGdPf9GI99NBDFxYCktdgfp38pdfXreNcjRo1Pvdqk74c7B577GHtyW0LdJm2yyf/32Xil1fkfl76ySef/G852Kj+nElkMua8tQxu15XFUzq7tPD/OqcuxhLFdLJRmXBeBBBAIOcCsjSpdrzK+HIuhDy6x2Cecsaj/+1+SJ5ce1QbO2vJ9mp+b6AOUdPZza6//voh0gLVBWX+CBLAbcfIMrCf9u3b905pDR8XdmB85ZVX2piu75ZHl2VNu3qpry6Tqsul+rVlfwQQQKBEC9jWup4+fXr7fAXKJpgX1bl69eraEs8Y1Ivn0YM46YIyEydOPL179+6PeRm6ZQvkmbZrrrpDhw4v3nXXXRfJGO4aQcqZfowtjy4LuTQtfg2pY3edPc9Wfinn9M2bN++QbRk5HgEEECiRAp06dXrB9KIdNGjQzfmIEkYw13o7ufKMAd3JsYfGo9PD6qpmMl3s9TptrJcAaAuQGbanateu/bHOM/DSSy8d8/vvv+8YpAIytO4N07VHjhx5Zfo5x44de4GXusg8+5P99JIPUm6OQQABBApaYPTo0ZebXs66zng+VV57RJ944onGCXPS6pnxM3vxukor/GyTjeTRV0ZpIwu8VJGFXs7SBV+iWlBGh41Jx8jn7rvvvvO/+OILz5O2XH311TeYXNq3bz+ryOW2227r7+VHhyx5OzFfZsyL8p5zbgQQQCArAZl+9BDTS1dznvqJNasLxHSwBvNGjRrphDi2GeA8BXMttpMnN51Px6P7zqMH4dCWq0yteqR+Malfv751WVEPBhnrVK9evQ8HDhw4Ssebu336njVr1rGma+hQSP3aIJPQ6Mxxtnvxp46zJ5gHeSo4BgEEECgmYMujz5w5U1/eif6LIpgXVTjqPHoQ2C+//LKqtKp767BDL5OzeAmsxffR5UlPPvnkZx566KFeX3311V7p5ZQfeaXdxqOfdtppT3i5Zp8+fcYGqT/HIIAAAggYBLTTlOkFfNVVV+nn1cT+eQ3m+tlaWp6+FxCJM48eFPnll19uc+mll46R/PgnXgJpgH1S8vXjff3UXjR5jKRjFgQ4z18t9sGDB48IWl+OQwABBBAwCOgkKKaXc/PmzeclFc5PMA86N3ou8+hB3D/77LPqd955Z1/JZc+Q4609y4MEZW29lytX7pcgx+oxklvvF6RuHIMAAgggYBGQebUPM72cw1jrOoobEEcw13JbxqOnpByJnc1MxqCX0aGHF1100d2yoIx24rPmtKPeR3u9R/E8cE4EEEAAARGwrHX9p37STRJUXMG8qM5ueXSZw71zkmzcyiILytSSBWUulclbXolqQRnTDwIZurZ13Lhx5+SLFeVEAAEE8lagXbt2OtwoYwtOxkYPT0rF5NN5Iy9LbmrOPOhn9uJ1dcuj9+vX7/ak2Pgph8z/Xk5/jPz73/9+wFlQRj/PR/KJXkdL6AQ6fsrHvggggAACAQV0DW5TQJe5tXUikZz/SYA+OO5grpV2m9ddO4vlHCaEAshyuvVlUpgrjjzyyLlOYA8luGvKRuZwPyGEInIKBBBAAAEvAm+++WYzU0BPQh7dZzBv4KXOXvdxxpubApzm0Xf2eq582E8XlHnqqadO0dnwdtttt29Nz4Xtv8uSr7/LfPLt8qHOlBEBBBAoGAFbHv211147OleV9RrMdQ3zqNbPLpQ8epB7uHDhwsbDhg275vDDD3/bab1bO9fpZ3ZZyKVVkOtxDAIIIIBAlgLaWcrU6iq+vGiWl/J8eBKCuRa2EPPonm+Cs+O6desq61zwtpa5Bn3pzX6+3/OzPwIIIIBASAK6rKfpZX300Ue/HtJlPJ8mKcFcC1wS8uhuN2bt2rVVatWqtdwWzLX3vMwueIznm8yOCCCAAALhC7z++ustTC9st7Wuwy/JNtvIrG5He+kAF+Vn9vR6yY8Lzcsb53UvtDx6et3XrFlTVcaxf2YL5nq/lixZUj+K54FzIoAAAgj4ELDk0VMS8I/0cbrAu7rNzpYeVOIK5kUVcVv1LJ/Go/u5MbKGes1q1aqtsgVzXc992bJldfycm30RQAABBCIUaNWq1WzTy1s+yV8T4aX/d+qkBnMtW5cuXaaZbPJ1PLrb/VyxYkWtKlWqfGML5lWrVv1S9t0/6meD8yOAAAII+BCQzm9DTS/wNm3avObjVL53dctTp5dJAuvUqHqzuxXabX3vQhmPXlR/aW0fpK1uWzDX1vvq1as9r6Xu+6HgAAQQQACBYALO8LSMueIo8+heW+Y6NjpYzbI/SvLomh8u+Dy65MEbeOm/oHl1ya//bWnV7JU5AwIIIIBAKAK2ta6dCWhCuVbRSby2zHMZzIvK6pJHT0kevUuoMDk4mSzUc7iupmZrmWuPd+35noMickkEEEAAAa8CMtWrDlHL2BKVKWKv8noeL/vlQ8s8vR6FnEefO3dui7Jly/5qC+YNGzZcrGPSvdxf9kEAAQQQyKGALMZyvemlfuyxx74cVtGGDh16nS146PYktMyL6lyoeXSZ1a116dKlf7PdjyZNmixcv359YpeMDevZ5DwIIIBAQQjIcqmtTS/2sPLoZ5999gRb8EhaMNeb62E8et4FO1k8pbPOu267H82aNZsvq7SVL4iHnEoggAACJUHAlkfXPGs2DvkazIvqbMmj58366FqfyZMnd9V5123BXNMwGzduLJvNfedYBBBAAIEcCDRv3vxN00v+pptuuiJokbwGc/m03S/oNaI+TofNmWzyaTy6rFHevVSpUlttwbxDhw7TN23aVDpqV86PAAIIIBCBwFVXXXWj6UXfvn37mUEu6TWYO73eg1wilmPc8ui5mPM+SKXHjRt3jgRz65rn8uPlWZlBcPsg1+AYBBBAAIEECMgCG8eaAnqFChV+3rp167Z+iukjmPf0c95c7Ovk0Y3ro+eiTH6u6faDJP2ed+vWbbLf++ynHOyLAAIIIBCDgObRXXKrqXfeeaeJ12L4COZneT1nrvdzy6PLwjJH5bp8pus70/da1zPv0aPHxFQqVSqp9aBcCCCAAAI+BJo2bbrA1EofPXr05bZT6fSsMiXqe6ZzpP93+cye+JZ5en3dxqM70+faeGLf3r9//9u83Is+ffrcQzCP/fZwQQQQQCA6gUGDBt1sCgAdO3ac7nZln8E8b1rmRXXOtzy6BOmxXoK5E/Sje6g4MwIIIIBA/ALTp09vbwoCbnl0n8E8r1rmRXfBNq97/Hcr8xW1pd2rV69xXoK5TPRzbVLKTTkQQAABBEIU2LBhQ3m3PPq77757cPHLeQ3mmoOWoPiP40MsfuSnsuTRW0ZeAMsFtEObdmzzEsyTPEww145cHwEEECgIgUMPPfQdU0AYM2ZM//RK+gzmDfMdyJJH12ltc/anQ810yJktmOs4dBnCdnbOCsqFEUAAAQTiERgwYMAtpqDQuXPn54pKUdKCudbbbe34XI5H37x58w46GYyXYC6Ty5wez5PEVRBAAAEEcirw3HPPdTQFBs2ja+E+//zzatKb/X1bAHE+s+d9y7zohsjwNP2sblwfPRc3Tqdnbdu2rS6g4zo0TVMpMu3rKbkoI9dEAAEEEMiBgC2PPmnSpH9VqlTpB1sAKbRgnnYrjBPMxD0eXRdO0QVUbPdCF2KRBVk65eBx4pIIIIAAArkUaNy48bumICHrZ1tX6SrgYL6NfFqfY7KJczy6LmmqS5vagrkukSpLpbbK5fPEtRFAAAEEciTgdUKSTMHk4IMPls7s7zfIUdEjv2wS8ujr1q2r3LBhw8W2YC4/vn6dO3du88hRuAACCCCAQDIFnn32WV0S1DpdaPF9NJhrZ7lk1iqcUjmf1XOWR1+7dm2VWrVqLbfdn/Lly2+QZW8PC6fWnAUBBBBAIC8Fvv/+ew3K1pW50oOKBPMlhR7M026mWx49svHoa9asqVqzZs3PbMFc+zgsWrSocV4+fBQaAQQQQCBcAS+fdNMDi3ymH1PIn9rTdSWPPtsUVOWTfCTj0VevXl1N/lbZgnnlypW/W7Zs2UHhPg2cDQEEEEAgbwUuvvjiO23BI9N2aR1u0NXWpFd150JtscedR1+xYkWtqlWrfmm7H1WqVPlG9j0gbx86Co4AAgggEL7AlClTTrIFEC/bW7Vq9frtt99+SSG13p08eizro0tru662um3WGvBXrlxZI/wngTMigAACCOS1QJA8ui3o1KhRY1UBtd4jH4++ZMmSBl7G/GteXT/J5/UDR+ERQAABBKITqFev3lJbkM5mu7TeZ0vrvZ+03vNuNjlLHn1otndFOrUdUrFixZ9svtrjXXu+Z3s9jkcAAQQQKGCBCy+88B5bQAlru7TeV+dT690tj+4s4hL4yZCx4y102JnNtm7duh/qmPTAF+JABBBAAIGSISDTvHY1BRWZtGSzzAhnDTq2oGTanvTcu9t4dOczeaCHRGZ1a6Ozu9ncdBRCoXY6DATHQQgggAACZgFLHj21fPnyA/Vzeb9+/W7Xcei2IBR0u5N7fziBPeeNefQgnQBffPHF43TedZuTzt+uU7/y7CKAAAIIIOBZoE6dOh+ZAswDDzxwXvqJZBW26g8//PDZ+slZWu8/2QJT0O1O7l17zuc09+42r/ttt93W3zOy7Kg/VrbffvvNNpOWLVu+rius+Tk3+yKAAAIIILDN+eeff58pyHTv3v1xNyL9LO203hfbAlXQ7dp617nnNSDGfbvCyqPLGuXddXlTm4Euk7pp06bScdeT6yGAAAIIFIDA448/fpop0Oy5555fea2i03o/y2m9/2gLXkG3n3jiic/quHdds91r2YLuZ8mjax2tf+PGjetVqlSprbb6dujQYfrmzZt3sJ6QHRBAAAEEEMgk8PXXX+8u/92YK/70009rBJFLa72/73J+3wvEpAdGab1/rlPSRtx6d8uju6YExo4de4EtkOv2bt26Td6yZcv2QZw5BgEEEEAAgb8E3Fb3khbmOdlSSWt6X8m9a+t9qq6l7iXIBdgnldZ6D/QjJFM9JY/+uqksbnn0ESNGDPZShx49ekxMpVKlsjXmeAQQQAABBLY577zzHjQFnzPPPPM/YRNJ672l5N5vk57zi70EvSD7OK33rHPvUs47TNeXHyjPZbLxut58r169xhHMw366OB8CCCBQggUeffTRHqagJXn0r6OkSWu9R9pzPq31Xt1PfWTt+C4mm0zj0fv06TPWyw8QZz8/RWFfBBBAAAEE3AUkj65TixpzxXF0QCsqoQTQztp6r169+udeAmOQfaT1vtJrz3lnchdTrj9VNLROW9ra4vZSniFDhgznmUQAAQQQQCASgf322+9TUzCaMGFCz0guajmp/pCQPHU/zb17CZQB9/lf7l3rqD31MxVJUgPasS9jUNfybd26dVvNhXu5vu6fC0uuiQACCCBQQgTOOeech00BSeZg1205/4uj9d6oUaPF0nq/fc6cOUcXVVjH2ptsOnfuPM2Z293aY9/p9Z5zRwqAAAIIIFDAAk4rPGNQ0uU7k1b1tNb7NCmbKV1gDbJurWrJkf+orXfnB03Gc8nsb9Zryzj0VBijBZJ2DygPAggggEACBbRzmktwS0mefY8EFvuvIhVrvVuDrFsgD3ObzhCnM8Ul2Y6yIYAAAggUmIAzM1zGlqjTEz4valws967BPScBXudul0lvTsgLNAqJAAIIIFA4Aj179nzE1Do999xzH8rXmsaRey/upquq6epq+WpGuRFAAAEE8ljAyfNmbKEfcMABK/K4an8Vvaj17jYDXLaf3HW9c1n3vFUheFEHBBBAAIE8FPjss8902JZxzHXS8+h+yXWMuU4cc9ZZZz0S1rj38uXLb5g7d24Lv2VhfwQQQAABBEIVcMujOyuzhXq9JJ1MJok5WOdnd1rvRbl3z/n3ihUr/rRo0aLGSaoTZUEAAQQQKKECMkHKY6ZWeu/eve8vKSxO671z165dJ2+33XZbbJ/hdRrYJUuWNCgpPtQTAQQQQCDhAg888MB5puBVu3btjxNe/FCLt3LlyhpVq1b90hbMd9lll++XLVt2UKgX52QIIIAAAghkI7BixYr9XAJY6vvvv98lm/Pny7EaoKtUqfKNLZhrwBezA/KlXpQTAQQQQKAECbjl0SdNmtS10Cn007mzkprrTHPVqlVbtXr1ap2Qhz8EEEAAAQSSJ3Daaac9aWqZFvqyn9Kp7RDt3GZrmet0uGvWrNkreXePEiGAAAIIIOAI3HvvveebAlrdunWXFSrUggULmuqwM1swF4MP165du3uhOlAvBBBAAIECEfj44481J2wcjy559EoFUtW/qiETwbQpW7bsr7Zg3rBhw8XOGumFRkB9EEAAAQQKUWDXXXddZwpuU6ZMObmQ6ixTtLbXqVptwbxJkyYL169fX7GQ6k5dEEAAAQQKXKBbt25PmQJc37597yqU6sviKZ11ERVbMG/WrNn8X375pXyh1Jt6IIAAAgiUEIG77777QlOQa9CgwdJCYJg8eXJXXd7UFszbtm378saNG8sWQp2pAwIIIIBACRP48MMPa7sEurwfj64L0ZQqVWqrLZh36NBh+ubNm3coYbef6iKAAAIIFJKAWx5dlyTN17qOHTu2jy2Q6/YuXbpM3bJly/b5Wk/KjQACCCCAwP8ETj755GdMga9fv3635yOTLr7iJZhLH4LJW7du3TYf60iZEUAAAQQQ+JvAHXfccbEp+DVq1GhxvnENGTJkuJdg3qtXr3GpVKpUvtWP8iKAAAIIIJBRQKZArWsKgNqZbMOGDXnT61tmuLvXSzAv9JnweNQRQAABBEqoQIUKFX42BcJp06adkHQWbWlLi3u8h2Ce6t+//21Jrw/lQwABBBBAIJCAdAybZgqGl1122a2BThrTQRrM3dZ3T6tXatiwYdfEVCwugwACCCCAQPwCY8aMudQU0GXmtHfjL5G3K2rvdLfJcdKDuXSU6+ftrOyFAAIIIIBAngq89957DU0BPal5dB03ruPHTeUu+u86Dl3Go5+dp7eGYiOAAAIIIOBdQIZulXLLo7/wwgsdvJ8t+j03bdpUWmd28xLMJ06ceHr0JeIKCCCAAAIIJESgU6dOL5gC5MCBA0clpJjb6PSsLVu2fN0WzPXLgkz7ekpSyk05EEAAAQQQiEVg9OjRA0xB8vDDD38nlkJYLqKroOkCKrZgrquqyYIsnZJQZsqAAAIIIIBArAILFy5sZAqUScij6/rkuk65LZiXLl36N1n3vFWseFwMAQQQQACBpAjY8ugzZsxol6uyrlu3rnLdunU/tAXzsmXL/jp37tzmuSon10UAAQQQQCARAtJrfIYpaF555ZUjc1HItWvXVqlVq9ZyWzAvX778hgULFhyeizJyTQQQQAABBBIlcNNNN11hCpxHHHHEgrgLu3r16mo1a9b8zBbMK1Wq9MOiRYsax10+rocAAggggEAiBd56661DTcFz++233/zbb7+ViavgK1eurFm1atUvbcG8cuXK3y1btuyguMrFdRBAAAEEEEi8gMy8tl2ZMmU2moLoSy+91DaOSqxYsaJWlSpVvrEFc91H9j0gjjJxDQQQQAABBPJKoF27drNMgXTw4MEjoq6MrP7WUFvdtmCurXdtxUddHs6PAAIIIIBAXgrccMMNV5uC6ZFHHvlmlJWSPHiTihUr/mQL5ppX1/x6lGXh3AgggAACCOS1wLx585qaAmqUeXTpod5Ue6rbgrn2eNee73mNTOERQAABBBCIWkBXMHPJo6deffXVVmGXQcaOH6ljyG3BXMei65j0sK/P+RBAAAEEEChIAVn45FVTcL3uuuuGhllp+YHQ2q0jXlE5ZBnXhT/88MMuYV6bcyGAAAIIIFDQAtdff/01poB+9NFH68IoofzJfOtddN51W8tc52/XedxDuSgnQQABBBBAoKQIyCfwFqYgq3l0/SyfrYWshNZN5ojfagvmurKarrCW7fU4HgEEEEAAgRInYBmPnpozZ07LbFBkjfIepUqVStmCua55rmufZ3MtjkUAAQQQQKBEC7Rq1Wq2KeAOGzbs2qA448aN6yXB/E9bMJd55adv3rx5h6DX4TgEEEAAAQQQEAGn81vGwNumTZvXgiCNHTu2jy2Q6/Zu3bpNDuOzfpAycgwCCCCAAAIFJTB79uyjTMFXe6X7DbjDhw8f4iWY9+jRY2IqlSpVUJhUBgEEEEAAgVwJyEIspbUDnCEIp9544w3P647379//di/BvFevXuMI5rm641wXAQQQQKBgBaSH+VxTIB4xYsRgLxXv06fPvV6Cuew31sv52AcBBBBAAAEEfAoMGTJkuCkYH3vssS+7nU5b2tLiHu8lmMex6IvPqrM7AggggAAChSPwyiuvtDYFZLc8+tatW7eVXPhjXoL5yJEjrygcMWqCAAIIIIBAAgUsefQ/58+ff3jxYmtnuS5dukzzEsyl1/sFCaw2RUIAAQQQQKDwBJo3b65LpmYcvla8da3jxmX8+AxbMNdJZWQ8+jmFp0WNEEAAAQQQSKjAVVdddaMpQLdv335mUbF1Rje3RV2KzqHTvcq0r6cktLoUCwEEEEAAgcIUmDVr1jGmgF6hQoWfNV8uc62XkR7xb9ha5jIMbossyHJCYUpRKwQQQAABBBIsIHn0Mm6BWjrOtZXV0N6yBXPd/uKLLx6X4KpSNAQQQAABBApboGnTpsaAXa5cuU22YK494mXd86MLW4naIYAAAgggkHCBQYMG3WwL2qbt5cuX37BgwYJ/9IZPeJUpHgIIIIAAAoUn4Hwqt66QVjyoV6pU6YdFixY1LjwRaoQAAggggEAeCmzYsKG89E7/w08rvXLlyt8tW7bsoDysLkVGAAEEEECgcAUOO+ywt70G9N13333txx9/XLtwNagZAggggAACeSowYMCAW7wE9GrVqq1auXJlzTytJsVGAAEEEECgsAWef/75420BvWbNmp+tWbOmamFLUDsEEEAAAQTyWODnn3+u4BbQ69Sp89HXX3+9Rx5XkaIjgAACCCBQMgTOOOOMiZmCeqNGjd5bt25d5ZKhQC0RQAABBBDIc4FVq1ZV23PPPb9OD+qyeMu89evXV8zzqlF8BBBAAAEESpbAt99+u1u/fv1uP/7441+84YYbri5Ztae2CCCAAAIIIIAAAggggAACCCCAAAIIIIAAAggggAACCCCAAAIIIIAAAggggAACCCCAAAIIIIAAAggggAACCCCAAAIIIIAAAggggAACCCCAAAIIIIAAAggggAACCCCAAAIIIIAAAggggAACCCCAAAIIIIAAAggggAACCCCAAAIIIIAAAggggAACCCCAAAIIIIAAAggggAACCCCAAAIIIIAAAggggAACCCCAAAIIIIAAAggggAACCCCAAAIIIIAAAggggAACCCCAAAIIIIAAAggggAACCCCAAAIIIIAAAggggAACCCCAAAIIIIAAAggggAACCCCAAAIIIIAAAggggAACCCCAAAIIIIAAAggggAACCCCAAAIIIIAAAggggAACCCCAAAIIIIAAAggggAACCCCAAAIIIIAAAggggAACCCCAAAIIIIAAAggggAACCCCAAAIIIIAAAggggAACCCCAAAIIIIAAAggggAACCCCAAAIIIIAAAggggAACCCCAAAIIIIAAAggggAACCCCAAAIIIIAAAggggAACCCCAAAIIIIAAAggggAACCCCAAAIIIIAAAggggAACCCCAAAIIIIAAAggggAACCCCAAAIIIIAAAggggAACCCCAAAIIIIAAAggggAACCCCAAAIIIIAAAggggAACCCCAAAIIIIAAAggggAACCCCAAAIIIIAAAggggAACCCCAAAIIIIAAAggggAACCCCAAAIIIIAAAggggAACCCCAAAIIIIAAAggggAACCCCAAAIIIIAAAggggAACCCCAAAIIIIAAAggggAACCCCAAAIIIIAAAggggAACCCCAAAIIIIAAAggggAACCCCAAAIIIIAAAggggAACCCCAAAIIIIAAAggggAACCCCAAAIIIIAAAggggAACCCCAAAIIIIAAAggggAACCMQi8P8A/rvNz3lzoUUAAAAASUVORK5CYII=;" parent="1" vertex="1">
                    <mxGeometry x="386" y="212" width="58" height="58" as="geometry"/>
                </mxCell>
                <mxCell id="10" value="FreeCAD" style="text;html=1;strokeColor=none;fillColor=none;align=center;verticalAlign=middle;whiteSpace=wrap;rounded=0;" parent="1" vertex="1">
                    <mxGeometry x="13" y="272" width="52" height="20" as="geometry"/>
                </mxCell>
            </root>
        </mxGraphModel>
    </diagram>
</mxfile>